<svg xmlns="http://www.w3.org/2000/svg" width="656" height="200" viewBox="0 0 656 200">
    <g fill="none" fill-rule="evenodd">
        <path fill="#FFFFFE" d="M255.232 41.386c43.074 0 78.086 34.993 78.086 78.043 0 43.05-35.012 78.043-78.086 78.043s-78.087-34.993-78.087-78.043c0-43.05 35.013-78.043 78.087-78.043"/>
        <path fill="#CECECE" d="M333.397 119.429c0 42.971-35.17 78.122-78.165 78.122-42.995 0-78.166-35.15-78.166-78.122 0-20.748 8.062-40.523 22.973-55.189 14.648-14.903 34.433-22.96 55.22-22.96 42.968.027 78.138 35.178 78.138 78.149"/>
        <path fill="#F7F6F5" d="M318.09 119.429c0 34.572-28.294 62.825-62.858 62.825-34.565 0-62.86-28.253-62.86-62.825 0-16.694 6.482-32.597 18.469-44.367 11.776-11.98 27.714-18.457 44.39-18.457 34.592 0 62.86 28.252 62.86 62.824"/>
        <path fill="#DFE5E3" d="M288.61 119.429c0 18.352-15.016 33.36-33.378 33.36-18.363 0-33.38-15.008-33.38-33.36 0-8.873 3.452-17.3 9.801-23.566 6.27-6.372 14.7-9.795 23.579-9.795 18.362 0 33.379 15.009 33.379 33.361"/>
        <path fill="#FFFFFE" d="M273.225 119.429c0 9.9-8.088 17.984-17.993 17.984-9.906 0-17.994-8.084-17.994-17.984 0-4.766 1.844-9.321 5.296-12.691 3.371-3.423 7.93-5.292 12.698-5.292 9.905 0 17.993 8.083 17.993 17.983"/>
        <path fill="#014976" d="M225.014 119.429c0-16.615 13.594-30.227 30.244-30.227 15.86 0 28.716 12.349 29.98 27.7h-10.09a20.295 20.295 0 0 0-9.062-14.35l-2.766 4.291c4.294 2.765 7.06 7.557 7.06 12.85 0 4.028-1.502 7.793-4.531 10.584-2.766 2.765-6.56 4.292-10.59 4.292-8.326 0-15.123-6.793-15.123-15.114 0-8.32 6.797-15.113 15.122-15.113v-5.03c-11.091 0-20.154 9.058-20.154 20.143s9.063 20.143 20.154 20.143c5.296 0 10.327-2.001 14.358-5.793 3.267-3.265 5.295-7.293 5.796-11.822h10.09c-.5 7.057-3.53 13.85-8.826 18.879-5.795 5.793-13.356 8.82-21.418 8.82-10.828 0-20.918-5.792-26.187-15.35l-4.294 2.528c6.033 11.085 17.888 17.878 30.481 17.878 8.562 0 16.624-3.028 23.184-8.557l7.06 7.056c-8.325 7.557-18.89 11.586-30.244 11.586-24.948 0-45.34-20.406-45.34-45.315 0-11.585 4.532-22.144 11.592-30.227l7.06 7.056c-5.295 6.293-8.561 14.35-8.561 23.171h5.005v-.079zm30.218 75.542c-19.89 0-38.042-7.794-51.636-20.406l7.06-7.056c11.83 10.821 27.452 17.377 44.602 17.377v-5.029c-33.274 0-60.488-27.199-60.488-60.428 0-16.114 6.296-31.228 17.625-42.813C223.223 65.794 237.343 59.5 252.703 59v10.084c-26.714 1.501-47.869 23.408-47.869 50.37 0 27.7 22.683 50.37 50.398 50.37 13.357 0 26.213-5.292 35.513-14.85 9.563-9.32 14.858-22.144 14.858-35.493h-5.031c0 11.322-4.031 21.906-11.593 30.227l-7.033-7.11c5.532-6.292 8.562-14.613 8.562-23.17 0-19.38-15.86-35.256-35.276-35.256-8.826 0-16.887 3.265-23.184 8.557l-7.06-7.057c8.061-7.293 18.652-11.585 30.244-11.585 20.154 0 38.305 13.587 43.574 32.992l4.795-1.264c-5.796-20.906-24.448-35.493-45.84-36.757V58.974c32.246 1.29 57.932 27.963 57.932 60.455 0 28.2-19.89 52.871-47.368 58.928l1.001 5.028c28.98-6.292 50.135-31.964 51.4-61.428h10.09c-1.529 40.522-34.776 73.014-75.584 73.014zm-75.584-75.542c0-20.143 7.798-39.022 22.183-53.372 14.384-14.35 33.247-22.144 53.4-22.144 40.81 0 74.056 32.492 75.584 73.015h-10.09c-1.502-35.02-30.217-62.956-65.493-62.956-17.388 0-34.011 6.793-46.341 19.142-12.33 12.349-19.153 28.937-19.153 46.315 0 17.115 6.56 32.729 17.388 44.578l-7.06 7.03c-12.593-13.587-20.418-31.729-20.418-51.608zm75.584-80.571c-21.419 0-41.81 8.32-56.932 23.67-15.359 15.115-23.684 35.495-23.684 56.901 0 44.314 36.277 80.571 80.616 80.571 44.338 0 80.615-36.257 80.615-80.571s-36.277-80.571-80.615-80.571z"/>
        <g>
            <path fill="#F6BDA2" d="M265.654 45.452s.864-6.331 1.07-11.64c.121-3.068.106-6.631.072-7.418-.088-1.97-.313-6.037-.313-6.037s.264-1.994.5-2.721c.71-2.127 1.496-6.112-2.215-7.07-3.152-.816-2.645 4.063-1.824 7.873.138.628-.633 4.262-.963 7.208-.39 3.454-.138 4.293-.587 8.114-.559 4.803-2.36 10.55-2.36 10.55l6.62 1.14z"/>
            <path fill="#014976" d="M259.857 37.089s1.544 2.153 3.69 2.294c2.146.14 2.956-1.878 3.538-1.028.425.623-.065 12.19-2.659 13.29-2.593 1.101-5.377-1.851-5.377-1.851l-1.078-3.782s1.497-8.423 1.886-8.923"/>
            <path fill="#797D82" d="M250.237 121.853c.812.564 6.316 1.855 5.774 4.763-.54 2.906-11.34-.345-11.095-3.634.18-2.42 4.51-1.694 5.32-1.129M261.423 117.654c.81.566 6.316 1.857 5.775 4.763-.54 2.906-11.342-.347-11.098-3.634.18-2.422 4.511-1.694 5.323-1.129"/>
            <path fill="#F04E23" d="M264.31 82.693s-1.845 35.338-3.517 36.09c-1.673.755-4.601.243-4.601.243l-2.12-36.078 10.239-.255z"/>
            <path fill="#F04E23" d="M254.072 82.948s-2.972 38.594-4.646 39.712c-1.674 1.117-4.601.243-4.601.243l-1.754-39.681 11.001-.274z"/>
            <path fill="#014976" d="M251.351 47.066s-8.833.872-9.104 7.047c-.271 6.178-.356 28.433-.356 29.28 0 .849 3.169 4.606 12.853 4.118 9.224-.465 10.48-2.935 10.48-4.444 0-1.855-.658-10.964-.913-19.21-.18-5.747 1.22-11.631.707-13.774-.778-3.241-9.744-4.107-13.667-3.017"/>
            <path fill="#D9A78F" d="M256.84 43.16s-.008 6.77-.808 7.307c-.799.536-5.191-.18-5.191-2.503 0-2.321.055-5.404.055-5.404l5.944.6z"/>
            <path fill="#F7BEA3" d="M261.432 33.285s.656 13.595-4.008 14.247c-3.501.489-8.278-1.02-8.43-5.502-.154-4.483-1.665-11.088 1.636-11.096 3.302-.007 11.182-.674 10.802 2.35"/>
            <path fill="#7E5C4A" d="M246.678 32.499s-.265 4.544-.182 6.573c.083 2.03 2.555 4.182 3.403 3.382.846-.8.479-8.244.479-8.244l-3.7-1.711z"/>
            <path fill="#7E5C4A" d="M255.262 28.346s4.877.015 6.615 2.84c1.607 2.615.8 5.585-.411 5.392-.456-.071-.706-.617-1.6-1.026-.893-.409-2.075-1.222-3.046-1.186-.914.034-3.08.328-3.632 2.409-.584 2.2-2.188 3.238-3.018 2.5-1.845-1.64-4.915-4.434-2.88-8.575 2.039-4.139 7.972-2.354 7.972-2.354"/>
            <path fill="#F7BEA3" d="M250.555 39.789s-.98-2.366-2.485-1.359c-1.505 1.008-.287 4.938 1.558 4.26 1.847-.68.927-2.901.927-2.901"/>
            <path fill="#F1F1F1" d="M244.492 11.228L265.046 0v20.36l-20.554 11.197z"/>
            <path fill="#F6BDA2" d="M267.342 14.959s-2.02-3.514-4.034-3.107c-2.016.407-1.472 4.646-.533 5.624.938.979 3.202 2.123 3.704 2.201.504.078 1.38-3.812.863-4.718"/>
            <path fill="#014976" d="M244.839 41.007c1.513-.597 1.303-1.214 1.793-.487.492.727 1.06 4.641 1.819 7.303.756 2.662 1.379 8.775-2.577 8.806-3.955.03-5.177-3.016-5.387-5.699-.209-2.683-1.423-9.567-.665-9.864.758-.3 3.505.536 5.017-.06"/>
            <path fill="#F6BDA2" d="M246.093 26.018s-.073 7.418-.33 8.718c-.26 1.299.932 6.135.526 7.92-.403 1.786-5.404 2.015-6.06.373-.656-1.645-.018-6.164.304-9.01.322-2.848 1.248-7.59 2.006-9.617.407-1.093-.36-6.287 3.743-7.023 2.212-.396 3.515.233 3.116 2.75-.401 2.522-2.762 5.655-3.305 5.89"/>
        </g>
        <path fill="#014976" d="M0 116.84C0 72.56 34.128 38 80.784 38c46.656 0 80.784 34.56 80.784 78.84 0 45.36-34.128 80.784-80.784 80.784C34.128 197.624 0 162.2 0 116.84zm40.176 0c0 25.704 18.144 45.144 40.608 45.144s40.608-19.44 40.608-45.144c0-24.624-18.144-43.2-40.608-43.2s-40.608 18.576-40.608 43.2zm318.6 78.192V72.992h-14.04v-32.4h74.952c30.024 0 50.328 22.032 50.328 53.136 0 31.104-20.304 53.568-50.328 53.568H397.44v47.736h-38.664zm38.664-80.136h14.472c12.528 0 18.576-8.856 18.576-21.168s-6.048-20.736-17.928-20.736h-15.12v41.904zm82.296 57.24s20.088 25.488 56.376 25.488c34.776 0 54.864-22.032 54.864-47.736 0-50.76-69.984-48.168-69.984-66.96 0-7.128 7.992-10.368 15.768-10.368 7.128 0 15.12 3.456 15.12 9.072v6.696h34.56V71.48c0-23.544-28.728-33.48-49.248-33.48-30.672 0-55.08 18.576-55.08 46.44 0 48.384 69.984 50.328 69.984 67.392 0 8.64-7.776 11.448-15.552 11.448-19.44 0-35.424-18.144-35.424-18.144l-21.384 27zm140.616-24.84h31.968l3.456-106.704h-38.88l3.456 106.704zm-1.08 47.736H653.4v-32.4h-34.128v32.4z"/>
    </g>
</svg>
